<svg fill="none" xmlns="http://www.w3.org/2000/svg">

<symbol viewBox="0 0 116 25" id="revoult">
<path d="M0 12.3126V24.6157H2.51007H5.02014V19.6157V14.5862L6.94384 14.6453L8.86754 14.7043L11.82 19.6453L14.7518 24.5862L17.6425 24.6157C19.2062 24.6157 20.5023 24.5764 20.5023 24.5173C20.5023 24.4582 19.165 22.1748 17.5499 19.4484C15.9143 16.722 14.5563 14.4484 14.5152 14.3795C14.4741 14.3008 14.9678 14.0055 15.6365 13.6807C17.1693 12.9523 18.7124 11.5842 19.3707 10.3441C20.2863 8.58226 20.3377 5.48187 19.453 3.83817C18.5375 2.13541 16.3978 0.698399 14.042 0.216114C13.3733 0.0783195 10.4209 -0.0102558 6.47063 -0.0102558H0V12.3126ZM13.3219 4.61573C14.4741 5.1177 15.0604 6.01337 15.0604 7.31258C15.0604 8.51337 14.5358 9.43856 13.5585 9.95037C12.9721 10.2456 12.2417 10.3244 8.96013 10.3736L5.03043 10.4523V7.32242V4.1925H8.7441C11.9434 4.21218 12.5709 4.27124 13.3219 4.61573Z" fill="black"/>
<path d="M79.8799 12.5197V24.626H82.2871H84.6943V12.5197V0.413372H82.2871H79.8799V12.5197Z" fill="black"/>
<path d="M106.472 11.7514C106.534 21.0821 106.534 21.1215 107.017 22.0565C107.563 23.1195 108.859 24.3203 109.908 24.7337C110.361 24.9109 111.41 25.0093 112.912 25.0093H115.216V23.0112V21.0132H113.879C112.861 21.0132 112.439 20.9148 111.996 20.59L111.451 20.1864V15.4817V10.8065H113.334H115.216V8.90692V7.00731H113.334H111.451V4.70416V2.40101H108.921H106.411L106.472 11.7514Z" fill="black"/>
<path d="M26.9318 6.98783C25.2344 7.52917 24.0823 8.21814 22.8581 9.44846C21.6031 10.7477 21.0167 11.7516 20.5949 13.4544C19.4736 18.0213 21.531 22.3914 25.7179 24.291C27.0141 24.8914 27.1787 24.9209 29.7916 24.9209C32.1268 24.9209 32.6823 24.8618 33.7213 24.4485C35.1821 23.8874 37.1367 22.2437 37.9082 20.8855L38.4534 19.9111L36.7766 18.976C35.8611 18.4544 35.0278 18.041 34.9352 18.041C34.8529 18.041 34.4929 18.4445 34.1225 18.917C33.2893 20.0784 32.1577 20.7772 30.7792 21.0429C29.555 21.2693 28.6601 21.1414 27.6005 20.6197C26.3454 20.0193 25.0904 18.4445 25.0904 17.4406C25.0904 17.037 25.1727 17.037 31.9931 17.037H38.8958V15.3638C38.8958 11.5252 37.0441 8.69058 33.567 7.22405C32.0754 6.55476 28.6189 6.45633 26.9318 6.98783ZM32.5795 10.8953C33.1247 11.2595 33.6493 11.8303 33.9785 12.4996L34.5237 13.5233L29.8842 13.5823C27.333 13.6118 25.2036 13.5823 25.1418 13.5233C24.8538 13.2477 26.3557 11.4563 27.405 10.8559C28.4749 10.226 28.6601 10.1965 30.1517 10.2555C31.4685 10.3146 31.8491 10.3933 32.5795 10.8953Z" fill="black"/>
<path d="M64.8503 6.91907C62.1551 7.64741 59.6656 9.54701 58.6472 11.6828C57.9168 13.2478 57.5979 15.6494 57.9168 17.4604C58.7295 22.1947 62.3814 25.0293 67.741 25.0293C70.8786 25.0293 72.9669 24.301 74.9935 22.5687C76.1662 21.545 76.9583 20.2655 77.4727 18.5431C77.915 17.0765 77.8122 13.8088 77.2875 12.4112C76.4234 10.1474 74.1499 8.05095 71.5781 7.17497C69.9836 6.61395 66.4654 6.486 64.8503 6.91907ZM69.9425 11.3876C72.8743 12.6277 73.8413 16.3679 71.8662 18.8482C70.4671 20.61 67.5147 21.2695 65.5293 20.2754C64.4491 19.7143 63.2661 18.4742 62.9369 17.5096C62.5151 16.3088 62.762 14.173 63.4204 13.238C64.9018 11.0923 67.4736 10.3738 69.9425 11.3876Z" fill="black"/>
<path d="M38.7518 7.29322C38.8135 7.43102 40.4903 11.3976 42.4757 16.0924L46.0968 24.6357L48.3703 24.5767L50.6437 24.5176L54.1722 16.2105C56.1165 11.6436 57.7625 7.7066 57.8345 7.44086L57.9682 6.97826L55.417 7.03732L52.8452 7.09637L50.6232 12.7361C49.4093 15.8365 48.3497 18.3168 48.288 18.2381C48.2057 18.1594 47.177 15.6003 45.9837 12.5393L43.8131 6.99794H41.2207C39.1324 7.01763 38.6592 7.07668 38.7518 7.29322Z" fill="black"/>
<path d="M87.1941 12.4799C87.1941 15.5606 87.2969 18.4543 87.4307 19.1236C87.8833 21.5645 89.2515 23.2476 91.5764 24.3007C92.9137 24.9011 93.068 24.9307 95.7838 24.9307C98.4379 24.9307 98.6848 24.8913 99.8576 24.3696C102.182 23.3362 103.664 21.5055 104.116 19.1334C104.25 18.474 104.353 15.5704 104.353 12.4897V7.02712H101.977H99.5695L99.5078 12.47C99.4461 17.6964 99.4255 17.972 98.9626 18.7692C98.2939 19.97 97.1623 20.4917 95.4752 20.3933C93.9733 20.3145 93.1092 19.8224 92.5228 18.6905C92.1731 18.0114 92.1319 17.3322 92.0702 12.4602L92.0085 7.01728H89.6013H87.2249V12.4799H87.1941Z" fill="black"/>
</symbol>

<symbol viewBox="0 0 36 36" id="g-2">
<path d="M18.2303 0.257324C19.3939 0.257324 20.6869 0.257324 21.8505 0.643039L18.2303 7.71447C12.8 7.32875 8.01616 11.7002 7.62828 17.3573C7.3697 23.0145 11.5071 27.9002 17.0667 28.1573H18.2303C20.6869 28.1573 23.0141 27.2573 24.8242 25.7145L28.703 32.5288C25.7293 34.7145 22.1091 36.0002 18.101 36.0002C8.53333 36.2573 0.387879 28.9288 -2.29571e-07 18.9002C-0.258586 9.00018 6.98182 0.643039 16.6788 0.257324H18.2303Z" fill="#1D1D1B"/>
<path d="M22.1091 15.5571L17.5839 23.2714H26.3758L30.5132 30.7286L35.0384 23.2714L30.5132 15.5571H22.1091Z" fill="#1D1D1B"/>
<path d="M23.2727 12.7287C23.2727 11.443 23.5313 10.2858 24.1778 9.25725C24.8242 8.35725 25.9879 7.32868 26.8929 6.8144L27.5394 6.42868C28.703 5.78583 29.0909 5.52868 29.0909 4.88583C29.0909 4.24297 28.1858 3.60011 27.5394 3.60011C26.3757 3.60011 25.3414 4.24297 24.8242 5.52868L23.2727 4.1144C23.5313 3.47154 24.1778 2.82868 24.8242 2.18583C25.7293 1.54297 26.6343 1.54297 27.5394 1.54297C28.4444 1.54297 29.7374 1.92868 30.2545 2.44297C30.7717 3.08583 31.4182 3.98583 31.4182 4.88583C31.4182 6.42868 30.5131 7.7144 28.703 8.35725L27.798 9.00011C26.8929 9.64297 26.2464 9.90011 25.9879 10.9287H31.4182V13.1144C31.4182 12.9858 23.2727 12.7287 23.2727 12.7287Z" fill="#1D1D1B"/>
</symbol>

<symbol viewBox="0 0 20 20" id="star">
<path fill-rule="evenodd" clip-rule="evenodd" d="M9.97423 0L7.5708 7.31337H0L6.24891 11.9788L3.84548 19.4183L9.97423 14.7528L16.2231 19.4183L13.8197 11.9788L19.9485 7.31337H12.3777L9.97423 0Z" fill="black"/>
</symbol>

<symbol viewBox="0 0 150 37" id="capterra">
<g clip-path="url(#clip0_1_342)">
<path fill-rule="evenodd" clip-rule="evenodd" d="M42.4803 25.3601C42.7441 25.2282 43.008 25.4921 43.1399 25.7559C43.1399 25.7559 43.5357 27.339 44.0634 27.339C44.0634 27.6029 44.0634 27.8667 43.7995 27.9987C42.876 28.3944 40.8971 28.9221 38.7863 28.9221C32.4539 28.9221 27.9684 24.4367 27.9684 18.3681C27.9684 11.9037 32.7177 7.81396 39.1821 7.81396C40.1056 7.81396 41.9526 8.07782 43.1399 8.34167C43.2718 8.47359 43.5357 8.73745 43.5357 9.0013V13.3549C43.5357 13.6187 43.2718 13.8826 43.008 13.8826H41.8206C41.5568 13.8826 41.4248 13.7506 41.2929 13.4868L40.8971 11.7717C40.6333 10.8483 39.8417 10.4525 38.2586 10.4525C33.7731 10.4525 32.3219 14.0145 32.3219 17.7084C32.3219 21.9301 34.3008 25.8878 39.314 25.8878C40.3694 26.0198 41.8206 25.7559 42.4803 25.3601ZM52.5066 26.2836C54.0898 26.2836 55.1452 25.0963 55.1452 23.909L55.0132 21.5343C55.0132 21.4024 55.0132 21.2704 54.7494 21.2704C51.3193 21.2704 50.132 22.4578 50.132 24.1728C50 25.3601 51.0555 26.2836 52.5066 26.2836ZM60.9499 26.5475C60.9499 26.2836 60.6861 26.1517 60.4222 26.1517C60.1584 26.2836 59.8945 26.2836 59.6307 26.2836C58.971 26.2836 58.8391 25.8878 58.8391 25.3601V18.3681C58.8391 14.2783 56.3325 12.6952 52.6386 12.6952C50.7916 12.6952 48.8127 13.091 47.4934 13.6187C47.2296 13.7506 47.0977 14.0145 47.2296 14.2783L47.6254 16.1253C47.7573 16.5211 48.0212 16.5211 48.285 16.3892C49.2085 15.8615 50.3958 15.5976 51.5832 15.5976C53.562 15.5976 55.0132 16.3892 55.0132 18.1042V18.6319C55.0132 18.8958 54.8813 19.1596 54.7494 19.1596C50.132 19.1596 46.3061 20.6108 46.3061 24.8324C46.3061 27.2071 48.0212 29.0541 50.7916 29.0541C53.2982 29.0541 54.4855 27.9987 55.409 26.9433H55.5409C55.6729 28.1306 56.3325 29.0541 58.0475 29.0541C58.971 29.0541 60.5541 28.7902 60.818 28.5264C61.0818 28.3944 61.0818 28.2625 61.0818 27.9987L60.9499 26.5475ZM71.1082 15.7295C69.5251 15.7295 68.3378 16.653 68.3378 18.1042V24.1728C68.3378 25.4921 69.2613 26.2836 70.8444 26.2836C73.7467 26.2836 74.8022 23.3812 74.8022 20.7427C74.6702 18.2361 73.6148 15.7295 71.1082 15.7295ZM70.7124 34.463C70.9763 34.463 71.2402 34.1992 71.2402 33.9353V33.1438C71.2402 32.8799 71.1082 32.6161 70.8444 32.6161L68.9974 32.3522C68.7336 32.2203 68.3378 31.9564 68.3378 31.4287V28.1306C68.4697 28.1306 68.7336 28.1306 68.9974 28.1306C69.3932 28.1306 69.657 28.2625 70.0528 28.2625C75.8576 28.2625 78.7599 24.7005 78.7599 19.5554C78.7599 15.3338 76.2533 12.4314 72.6913 12.4314C70.3167 12.4314 68.9974 13.6187 67.942 14.806H67.8101L67.5462 13.3549C67.5462 13.091 67.2824 12.6952 66.8866 12.8272L62.0053 13.3549C61.7415 13.3549 61.4776 13.6187 61.4776 13.8826V14.6741C61.4776 14.938 61.6095 15.0699 61.8734 15.2018L63.3246 15.4657C63.8523 15.5976 63.9842 16.1253 63.9842 16.3892V31.8245C63.9842 32.4841 63.7204 32.748 63.3246 32.748L62.1372 33.1438C61.8734 33.2757 61.7415 33.4076 61.7415 33.6715V34.463C61.7415 34.7269 62.0053 34.9907 62.2692 34.9907L70.7124 34.463ZM90.5014 25.7559C90.8971 25.7559 91.161 25.8878 91.161 26.1517L91.6887 27.7348C91.6887 28.1306 91.6887 28.2625 91.4249 28.3944C90.5014 28.9221 88.7863 29.186 87.599 29.186C84.5647 29.186 82.4539 27.471 82.4539 24.4367V16.5211C82.4539 16.2572 82.3219 16.1253 82.0581 16.1253H79.9473C79.6834 16.1253 79.6834 15.9934 79.6834 15.7295L79.8153 14.0145C79.8153 14.0145 79.9473 13.7506 80.0792 13.7506H81.7942C82.19 13.7506 82.19 13.4868 82.19 13.2229V11.244C82.19 10.8483 82.3219 10.5844 82.7177 10.4525L85.6201 9.529C86.0159 9.39708 86.1478 9.66093 86.1478 10.0567V13.2229C86.1478 13.3549 86.2797 13.6187 86.5436 13.6187H90.3694C90.5014 13.6187 90.6333 13.7506 90.6333 13.8826V15.7295C90.6333 15.7295 90.5014 15.9934 90.3694 15.9934H86.5436C86.2797 15.9934 86.0159 16.1253 86.0159 16.3892V23.5132C86.0159 25.2282 86.9394 26.2836 88.6544 26.2836C89.1821 26.1517 89.8417 26.0198 90.5014 25.7559ZM102.111 17.1807C102.111 19.2915 100 19.9512 98.0212 19.9512C97.4935 19.9512 97.0977 19.9512 96.8338 19.8192C96.57 19.8192 96.438 19.6873 96.438 19.4235C96.3061 17.4446 97.3615 14.806 99.7362 14.806C101.187 14.806 102.111 15.8615 102.111 17.1807ZM104.749 25.2282C105.013 24.9644 105.277 25.2282 105.409 25.4921L105.541 27.0752C105.673 27.339 105.541 27.6029 105.277 27.7348C104.09 28.5264 102.243 28.9221 100.528 28.9221C95.2507 28.9221 92.4803 25.624 92.4803 20.7427C92.4803 16.1253 96.0423 12.6952 100.396 12.6952C103.298 12.6952 106.201 14.2783 106.201 17.3126C106.201 20.8747 102.507 22.1939 99.3404 22.1939C98.9446 22.1939 98.5489 22.1939 98.1531 22.1939C97.7573 22.1939 97.4934 22.1939 97.2296 22.1939C96.9657 22.1939 96.8338 22.3258 96.8338 22.5897C97.0977 24.9644 99.4723 26.4155 101.451 26.4155C102.902 26.4155 103.958 25.8878 104.749 25.4921C104.749 25.2282 104.749 25.2282 104.749 25.2282ZM116.623 28.6583C116.887 28.6583 117.15 28.3944 117.15 28.1306V27.339C117.15 27.0752 117.019 26.9433 116.755 26.8113L114.908 26.5475C114.644 26.5475 114.248 26.1517 114.248 25.624V18.7638C114.248 17.1807 115.567 16.2572 117.019 16.2572C117.678 16.2572 118.338 16.3892 118.865 16.5211C119.129 16.653 119.525 16.3892 119.525 16.2572L120.185 13.4868C120.317 13.091 120.185 12.8272 119.921 12.8272C119.525 12.5633 118.997 12.5633 118.602 12.5633C116.623 12.5633 115.303 13.8826 114.116 15.4657H113.984L113.72 13.3549C113.72 12.9591 113.457 12.6952 113.193 12.6952L108.311 13.3549C108.048 13.3549 107.784 13.6187 107.784 13.8826V14.6741C107.784 14.938 107.916 15.0699 108.179 15.2018L109.631 15.4657C110.158 15.5976 110.29 16.1253 110.29 16.3892V25.8878C110.29 26.5475 110.026 26.8113 109.631 26.8113L108.311 27.0752C108.048 27.2071 107.916 27.339 107.916 27.6029V28.3944C107.916 28.6583 108.179 28.9221 108.443 28.9221H116.623V28.6583ZM130.475 28.1306C130.475 28.3944 130.211 28.6583 129.947 28.6583H121.768C121.504 28.6583 121.24 28.3944 121.24 28.1306V27.339C121.24 27.0752 121.372 26.9433 121.636 26.8113L122.955 26.5475C123.351 26.5475 123.615 26.1517 123.615 25.624V16.1253C123.615 15.7295 123.483 15.3338 122.955 15.2018L121.504 14.938C121.24 14.806 121.108 14.6741 121.108 14.4103V13.6187C121.108 13.3549 121.372 13.091 121.636 13.091L126.517 12.4314C126.781 12.4314 127.045 12.6952 127.045 13.091L127.309 15.4657H127.441C128.628 13.8826 130.079 12.5633 131.926 12.5633C132.322 12.5633 132.85 12.5633 133.245 12.8272C133.509 12.8272 133.641 13.091 133.509 13.4868L132.85 16.2572C132.85 16.3892 132.454 16.653 132.19 16.5211C131.662 16.3892 131.003 16.2572 130.343 16.2572C128.892 16.2572 127.573 17.1807 127.573 18.7638V25.624C127.573 26.2836 127.968 26.5475 128.232 26.5475L130.079 26.8113C130.343 26.9433 130.475 27.0752 130.475 27.339V28.1306ZM144.063 23.909C144.063 25.0963 143.14 26.2836 141.425 26.2836C140.106 26.2836 138.918 25.3601 138.918 24.0409C138.918 22.3258 140.106 21.1385 143.536 21.1385C143.8 21.1385 143.8 21.2704 143.8 21.4024L144.063 23.909ZM149.34 26.1517C149.604 26.1517 149.868 26.2836 149.868 26.5475L150.132 28.1306C150.132 28.3944 150.132 28.5264 149.868 28.6583C149.472 28.9221 148.021 29.186 147.098 29.186C145.515 29.186 144.723 28.3944 144.591 27.0752H144.459C143.536 27.9987 142.216 29.186 139.842 29.186C137.071 29.186 135.356 27.339 135.356 24.9644C135.356 20.7427 139.182 19.2915 143.8 19.2915C143.931 19.2915 144.063 19.0277 144.063 18.7638V18.1042C144.063 16.2572 142.612 15.5976 140.633 15.5976C139.446 15.5976 138.127 15.9934 137.335 16.3892C137.071 16.5211 136.807 16.5211 136.675 16.1253L136.28 14.2783C136.148 14.0145 136.28 13.7506 136.544 13.6187C137.863 12.9591 139.842 12.6952 141.689 12.6952C145.383 12.6952 147.889 14.2783 147.889 18.3681V25.3601C147.889 26.0198 148.153 26.2836 148.813 26.2836C148.813 26.2836 149.077 26.2836 149.34 26.1517Z" fill="black"/>
<path fill-rule="evenodd" clip-rule="evenodd" d="M6.0686 17.4447H0.791557C0.659631 17.4447 0.527704 17.3127 0.659631 17.3127C0.527704 17.3127 0.527704 17.1808 0.527704 17.0489L0.659631 16.3892C0.791557 16.1254 0.791557 15.9935 0.791557 15.9935C0.791557 15.8615 0.923483 15.7296 0.923483 15.5977C0.923483 15.3338 1.05541 15.07 1.18734 14.8061C3.29815 7.02249 10.1583 0.953888 10.8179 0.294257C11.2137 0.162331 11.3456 0.162331 11.6095 0.294257C18.8654 6.75864 21.6359 13.223 21.8997 16.785V17.1808C21.8997 17.3127 21.7678 17.5766 21.504 17.5766H16.095C15.9631 17.5766 15.6992 17.5766 15.6992 17.3127C15.1715 15.07 13.1926 13.6188 11.0818 13.6188C8.83905 13.6188 6.99208 15.2019 6.46438 17.3127C6.33245 17.3127 6.33245 17.4447 6.0686 17.4447ZM15.8311 19.5555H21.2401C21.2401 19.5555 21.504 19.5555 21.2401 19.6874C21.372 19.6874 21.372 19.8193 21.372 19.9513L21.2401 20.6109C21.1082 20.7428 21.1082 20.8747 21.1082 20.8747C21.1082 21.0067 20.9763 21.1386 20.9763 21.2705C20.9763 21.5344 20.8443 21.7982 20.7124 22.0621C18.4697 29.8457 11.6095 36.0462 10.9499 36.7059C10.686 36.8378 10.5541 36.8378 10.2902 36.7059C3.16623 30.2415 0.263852 23.7771 0 20.2151V19.8193C0 19.6874 0.131926 19.4235 0.395778 19.4235H5.80475C5.93668 19.4235 6.20053 19.4235 6.20053 19.6874C6.72823 21.9301 8.70712 23.3813 10.8179 23.3813C13.0607 23.3813 14.9077 21.7982 15.4354 19.6874C15.4354 19.6874 15.5673 19.5555 15.8311 19.5555Z" fill="black"/>
</g>
<defs>
<clipPath id="clip0_1_342">
<rect width="150" height="37" fill="white"/>
</clipPath>
</defs>
</symbol>

<symbol viewBox="0 0 80 32" id="specialezed">
<g clip-path="url(#clip0_1_393)">
<path d="M12.8151 5.95538C12.5443 5.71906 12.2736 5.71906 11.9577 6.00263C10.4688 6.56983 7.67123 8.55506 6.99441 8.4133C8.12246 6.80621 9.34072 5.24637 10.7395 3.82835C11.3261 2.97753 10.559 2.78847 10.4688 2.31579C10.2883 1.70131 10.3785 1.03958 10.559 0.472365C10.8297 -0.000308482 10.2883 -0.0948433 9.97241 0.0942261C6.31759 4.06468 3.20423 8.03517 0.316469 12.0529C-0.134744 12.6673 -0.0445015 13.14 0.271347 13.5182L1.80547 15.5506C2.12132 16.1179 2.61765 16.2124 3.24935 15.787L8.07734 12.3838C6.13713 15.6924 4.28714 19.4266 2.88838 23.9642C2.25668 25.9022 4.01641 28.8328 6.40785 31.9051C6.67857 32.236 7.22 31.9051 6.85903 31.2434C4.55787 26.753 6.45298 19.8047 13.8528 9.5477C14.2138 9.12231 14.3492 8.69687 14.0785 8.27149L12.8151 5.95538Z" fill="#1D1D1B"/>
<path d="M31.8559 11.8632L32.4876 9.31081C32.623 8.93267 32.8937 8.74361 33.2547 8.69635H35.4205H36.0522L36.4132 7.51465H35.4656L32.4876 7.5619C31.8559 7.51465 31.3596 7.75102 31.0438 8.50729L29.4194 15.1247L28.7877 17.7244C28.6072 18.2916 28.7426 18.7643 29.4194 18.9534C29.4645 18.9534 29.5548 19.0006 29.5999 19.0006H33.39L33.7059 17.819H30.8182C30.5926 17.6298 30.412 17.6298 30.5023 17.0626L31.1791 14.2739C31.2694 13.943 31.4498 13.7067 31.7657 13.7067H33.9767L34.2925 12.7141H32.0364C31.7657 12.525 31.7206 12.2414 31.8559 11.8632Z" fill="#1D1D1B"/>
<path d="M36.3228 17.063C37.8118 10.9655 36.9093 14.6051 38.263 9.3111C38.3984 8.93297 38.6691 8.7439 39.03 8.69665H41.0605H41.7825L42.0532 7.75132L42.1434 7.46769H42.0532H41.0605H38.2179C37.5862 7.42044 37.0447 7.65676 36.774 8.41302L35.4204 13.9433L34.5179 17.5829C34.3374 18.2447 34.4728 18.7173 35.3301 18.8592H35.3752H39.1203L39.4361 17.6775H36.5484C36.413 17.6775 36.2325 17.6302 36.3228 17.063Z" fill="#1D1D1B"/>
<path d="M21.7943 13.4705L19.6284 11.4853C19.1772 10.9181 19.6284 8.79103 20.576 8.74377H22.9674H23.7796L24.0503 7.60938H22.9674H19.9894C18.726 7.8457 17.6882 10.5872 18.1846 11.9107L20.3955 13.9904C20.7113 14.3686 20.7565 14.6995 20.7565 15.0776L20.1248 17.3464C19.9894 17.9136 19.6284 17.9136 19.1772 17.9136H16.1992L15.9285 19.0008H20.3052C20.9821 18.9535 21.3882 18.5281 21.4784 17.8191L22.2004 14.9358C22.3808 14.2741 22.1552 13.8014 21.7943 13.4705Z" fill="#1D1D1B"/>
<path d="M29.1034 13.14L29.4192 11.7693L30.096 8.88597C30.1863 8.1297 29.9607 7.70431 29.4192 7.60975C29.329 7.5625 29.2387 7.5625 29.1485 7.5625H24.8619L23.012 14.7944L21.9291 19.0012H23.012H23.4181L26.0803 8.74415H27.8399C28.2009 8.83871 28.4266 9.02778 28.4266 9.40591L27.7046 12.5255C27.6144 13.0455 27.2985 13.3764 26.7571 13.5654L25.4034 13.8491L25.1778 14.9362L28.1107 14.369C28.607 14.2272 29.0131 13.8491 29.1034 13.14Z" fill="#1D1D1B"/>
<path d="M44.7157 7.5625H42.956L42.0535 11.013L41.0609 14.8416L39.978 19.0012H41.0609H41.7377L42.0535 17.725L44.7157 7.5625Z" fill="#1D1D1B"/>
<path d="M60.3277 7.5625H59.2446H58.6128L55.5898 19.0012H57.3498L59.2446 11.8166L60.3277 7.5625Z" fill="#1D1D1B"/>
<path d="M68.0431 14.2742C68.1333 13.9433 68.3139 13.707 68.6297 13.707H70.8405L71.1564 12.7144H68.8554C68.5846 12.5253 68.5395 12.2417 68.6749 11.8636L69.3518 9.3111C69.4872 8.93297 69.7574 8.7439 70.1185 8.69665H72.1041H72.9164L73.1415 7.94038L73.2769 7.46769H73.1415H72.1492H69.3969C68.7651 7.42044 68.2236 7.65676 67.9528 8.41302L66.3282 15.0305L65.6969 17.6302C65.5164 18.1974 65.6518 18.6701 66.3282 18.8592C66.3733 18.8592 66.4636 18.9064 66.5087 18.9064H70.299L70.6149 17.7247H67.6821C67.4564 17.5356 67.2759 17.5356 67.3662 16.9684L68.0431 14.2742Z" fill="#1D1D1B"/>
<path d="M79.1436 7.5625H73.9544L73.0974 10.7767L72.1046 14.6053L70.9764 18.9539H72.1046H73.0974H76.2559C77.0226 18.9067 77.4738 18.4813 77.6544 17.6777L80.001 8.55509C80.0913 7.98789 79.7754 7.60975 79.1436 7.5625ZM78.1056 9.64223L76.1656 16.7324C76.1205 17.2996 75.7595 17.6777 75.0374 17.725H73.1877C73.1426 17.725 73.0974 17.725 73.0523 17.6777C72.8718 17.5832 72.8718 17.3468 72.962 17.1105L73.0523 16.7796L75.3533 8.60239H77.6092C78.1959 8.64965 78.2861 9.02778 78.1056 9.64223Z" fill="#1D1D1B"/>
<path d="M60.6882 16.921L66.2379 9.50004L66.6441 8.93284C67.1405 8.17657 66.96 7.60938 66.2379 7.60938C66.2379 7.60938 66.2379 7.60938 66.1928 7.60938H61.1395L61.0944 8.64921H64.2077C64.6138 8.64921 64.8395 8.83828 64.5687 9.21641L59.2441 16.5429L58.342 17.7718C57.981 18.339 58.1164 18.7645 58.7482 19.048H59.2441H64.2528L64.5687 17.7718H60.7785C60.4174 17.6773 60.3723 17.2046 60.6882 16.921Z" fill="#1D1D1B"/>
<path d="M47.7838 7.60975L42.0534 18.8594L41.9631 19.0485H42.0534H43.3168L47.8289 10.0677L48.235 10.1149L48.4606 12.6201C48.6411 13.2346 48.235 13.1873 48.0996 13.1873H46.8363L46.6106 14.1326L48.0996 14.1799C48.3704 14.2272 48.5057 14.369 48.4606 14.6526L48.7313 18.9067H50.2654L49.6337 7.5625L47.7838 7.60975Z" fill="#1D1D1B"/>
<path d="M52.6118 16.9214L55.0482 7.5625H53.2887L50.6716 17.6304C50.6265 18.1976 50.8521 18.8121 51.5738 19.0012H55.0482L55.4092 17.7723L52.9277 17.725C52.6118 17.6777 52.4764 17.3941 52.6118 16.9214Z" fill="#1D1D1B"/>
</g>
<defs>
<clipPath id="clip0_1_393">
<rect width="80" height="32" fill="white"/>
</clipPath>
</defs>
</symbol>

<symbol viewBox="0 0 90 21" id="lokalise">
<g clip-path="url(#clip0_1_372)">
<path d="M0 0.228516H3.52691V20.6073H0V0.228516Z" fill="#221F1F"/>
<path d="M9.55813 20.0256C8.44383 19.375 7.5621 18.4818 6.91295 17.3496C6.26034 16.2174 5.9375 14.9713 5.9375 13.615C5.9375 12.2549 6.26381 11.0125 6.91295 9.88033C7.5621 8.74818 8.44383 7.85863 9.55813 7.20433C10.6724 6.55371 11.8805 6.22656 13.1788 6.22656C14.4805 6.22656 15.6851 6.55371 16.7994 7.20433C17.9137 7.85495 18.7954 8.74818 19.4446 9.88033C20.0937 11.0125 20.42 12.2586 20.42 13.615C20.42 14.975 20.0937 16.2174 19.4446 17.3496C18.792 18.4818 17.9102 19.375 16.7994 20.0256C15.6851 20.6762 14.4771 21.0034 13.1788 21.0034C11.877 20.9997 10.669 20.6762 9.55813 20.0256ZM15.0359 17.0519C15.5983 16.721 16.0461 16.2542 16.3863 15.6514C16.723 15.0485 16.8931 14.3685 16.8931 13.615C16.8931 12.8614 16.723 12.1814 16.3863 11.5786C16.0461 10.9757 15.5983 10.5089 15.0359 10.1781C14.4736 9.84725 13.8557 9.68184 13.1788 9.68184C12.5018 9.68184 11.8839 9.84725 11.3216 10.1781C10.7592 10.5089 10.3114 10.9757 9.97122 11.5786C9.63103 12.1814 9.46441 12.8614 9.46441 13.615C9.46441 14.3685 9.6345 15.0485 9.97122 15.6514C10.3079 16.2542 10.7592 16.721 11.3216 17.0519C11.8839 17.3827 12.5018 17.5481 13.1788 17.5481C13.8557 17.5481 14.4736 17.3827 15.0359 17.0519Z" fill="#221F1F"/>
<path d="M22.8301 0.228516H26.357V12.3698L30.9531 6.62445H35.1499L29.9637 13.1049L35.5249 20.6036H31.0086L26.357 14.1231V20.6036H22.8301V0.228516Z" fill="#221F1F"/>
<path d="M38.8505 20.0952C37.8612 19.4924 37.0593 18.6286 36.4449 17.5074C35.8304 16.3863 35.5215 15.0887 35.5215 13.6147C35.5215 12.2767 35.8166 11.038 36.4032 9.90584C36.9899 8.77369 37.7918 7.87679 38.8089 7.21514C39.826 6.55349 40.9368 6.22266 42.1483 6.22266C43.0023 6.22266 43.7833 6.37337 44.488 6.67479C45.1927 6.97621 45.7308 7.38055 46.1057 7.89149V6.61965H49.6326V20.6025H46.1057V19.3306C45.5537 19.8783 44.9636 20.2937 44.3422 20.5767C43.7208 20.8598 42.9155 21.0031 41.9366 21.0031C40.8674 20.9995 39.8399 20.698 38.8505 20.0952ZM45.2795 16.4157C45.939 15.6622 46.2688 14.7285 46.2688 13.6147C46.2688 12.501 45.939 11.5673 45.2795 10.8138C44.6199 10.0602 43.7451 9.68162 42.6586 9.68162C41.5721 9.68162 40.6973 10.0602 40.0377 10.8138C39.3782 11.5673 39.0484 12.5046 39.0484 13.6147C39.0484 14.7285 39.3782 15.6622 40.0377 16.4157C40.6973 17.1693 41.5686 17.5479 42.6586 17.5479C43.7451 17.5479 44.6199 17.1693 45.2795 16.4157Z" fill="#221F1F"/>
<path d="M52.7363 0.228516H56.2632V20.6073H52.7363V0.228516Z" fill="#221F1F"/>
<path d="M59.5504 4.01745C59.1234 3.56532 58.9082 3.01762 58.9082 2.37435C58.9082 1.71271 59.1234 1.15398 59.5504 0.690825C59.9774 0.227671 60.4946 -0.00390625 61.1021 -0.00390625C61.727 -0.00390625 62.2546 0.227671 62.692 0.690825C63.1294 1.15398 63.3481 1.71638 63.3481 2.37435C63.3481 3.01762 63.1294 3.56165 62.692 4.01745C62.2546 4.46957 61.7235 4.69748 61.1021 4.69748C60.4946 4.69748 59.9809 4.47325 59.5504 4.01745ZM59.363 6.62361H62.8899V20.6065H59.363V6.62361Z" fill="#221F1F"/>
<path d="M65.2988 19.6433L66.1007 16.1329H66.2604C67.4198 17.0776 68.6036 17.5481 69.8151 17.5481C70.3149 17.5481 70.7176 17.4489 71.0301 17.2504C71.3425 17.0519 71.4987 16.7651 71.4987 16.3865C71.4987 15.9895 71.3147 15.6697 70.9502 15.4235C70.5857 15.1772 69.9019 14.8758 68.9056 14.5192C67.8885 14.1627 67.1005 13.6407 66.5416 12.9607C65.9827 12.2806 65.698 11.4793 65.698 10.5567C65.698 9.25544 66.1563 8.20783 67.0762 7.41385C67.9926 6.61987 69.1555 6.22656 70.5649 6.22656C71.2765 6.22656 71.9118 6.2964 72.4637 6.43976C73.0157 6.58312 73.5398 6.81102 74.0397 7.13449L74.1716 10.7H73.9842C73.342 10.2663 72.7727 9.93915 72.2728 9.72227C71.7729 9.5054 71.214 9.39512 70.5892 9.39512C70.1449 9.39512 69.7769 9.49069 69.4922 9.67816C69.2076 9.86563 69.0653 10.1119 69.0653 10.4133C69.0653 10.8103 69.2423 11.1338 69.5999 11.3911C69.9574 11.6447 70.6239 11.9535 71.6063 12.31C72.7276 12.707 73.578 13.1886 74.1578 13.7546C74.7375 14.3207 75.0256 15.1992 75.0256 16.3865C75.0256 17.368 74.793 18.2061 74.3313 18.9045C73.8662 19.6029 73.2587 20.1249 72.5019 20.4741C71.7452 20.8233 70.912 20.996 70.0025 20.996C68.1662 20.9997 66.5971 20.5476 65.2988 19.6433Z" fill="#221F1F"/>
<path d="M80.0019 20.0109C78.898 19.3493 78.0267 18.4487 77.3949 17.3092C76.7632 16.166 76.4473 14.8978 76.4473 13.501C76.4473 12.141 76.7458 10.9096 77.3429 9.80682C77.94 8.70407 78.7696 7.82922 79.8284 7.18963C80.8871 6.55003 82.0882 6.22656 83.4247 6.22656C84.7785 6.22656 85.9519 6.56106 86.9377 7.23006C87.9271 7.89906 88.6734 8.79229 89.1837 9.90606C89.6905 11.0198 89.9474 12.2181 89.9474 13.501V14.6038H79.818C80.0332 15.6624 80.4914 16.4637 81.1961 17.0078C81.9008 17.5554 82.8311 17.8275 83.9905 17.8275C85.754 17.8275 87.2953 17.2136 88.6144 15.9895H88.9893L88.8574 19.5257C88.0555 20.0183 87.2085 20.3858 86.3163 20.6284C85.4242 20.8747 84.5703 20.996 83.751 20.996C82.3521 20.9997 81.1058 20.6725 80.0019 20.0109ZM86.417 12.0564C86.3268 11.2073 85.9935 10.542 85.4138 10.0604C84.8341 9.57891 84.1259 9.33999 83.2893 9.33999C82.4701 9.33999 81.7515 9.57156 81.1371 10.0347C80.5226 10.4979 80.1096 11.1705 79.8943 12.0601H86.417V12.0564Z" fill="#221F1F"/>
</g>
<defs>
<clipPath id="clip0_1_372">
<rect width="90" height="21" fill="white"/>
</clipPath>
</defs>
</symbol>

</svg>





